<mxfile host="app.diagrams.net" modified="2024-01-31T14:40:54.266Z" agent="Mozilla/5.0 (Windows NT 10.0; Win64; x64) AppleWebKit/537.36 (KHTML, like Gecko) Chrome/121.0.0.0 Safari/537.36" etag="gHmx2mSoi_98bxsXJrQV" version="23.0.2" type="device">
  <diagram name="第 1 页" id="YeS9SldABpV4ri3Kkgmh">
    <mxGraphModel dx="1290" dy="830" grid="1" gridSize="10" guides="1" tooltips="1" connect="1" arrows="1" fold="1" page="1" pageScale="1" pageWidth="827" pageHeight="1169" math="0" shadow="0">
      <root>
        <mxCell id="0" />
        <mxCell id="1" parent="0" />
        <mxCell id="lFueTjJ-1u9m3FiK80w1-99" value="" style="group" vertex="1" connectable="0" parent="1">
          <mxGeometry x="104" y="40" width="536" height="810" as="geometry" />
        </mxCell>
        <mxCell id="lFueTjJ-1u9m3FiK80w1-23" value="" style="group;rounded=0;fillColor=none;" vertex="1" connectable="0" parent="lFueTjJ-1u9m3FiK80w1-99">
          <mxGeometry width="536" height="40" as="geometry" />
        </mxCell>
        <mxCell id="g7B2WHEcdGv1Wj2Cn3hY-25" value="&lt;font style=&quot;font-size: 20px;&quot; face=&quot;Times New Roman&quot;&gt;1&lt;/font&gt;" style="ellipse;whiteSpace=wrap;html=1;aspect=fixed;strokeWidth=2;" parent="lFueTjJ-1u9m3FiK80w1-23" vertex="1">
          <mxGeometry x="96" width="40" height="40" as="geometry" />
        </mxCell>
        <mxCell id="lFueTjJ-1u9m3FiK80w1-4" value="&lt;font style=&quot;font-size: 20px;&quot; face=&quot;Times New Roman&quot;&gt;2&lt;/font&gt;" style="ellipse;whiteSpace=wrap;html=1;aspect=fixed;strokeWidth=2;" vertex="1" parent="lFueTjJ-1u9m3FiK80w1-23">
          <mxGeometry x="176" width="40" height="40" as="geometry" />
        </mxCell>
        <mxCell id="lFueTjJ-1u9m3FiK80w1-5" value="&lt;font style=&quot;font-size: 20px;&quot; face=&quot;Times New Roman&quot;&gt;3&lt;/font&gt;" style="ellipse;whiteSpace=wrap;html=1;aspect=fixed;strokeWidth=2;" vertex="1" parent="lFueTjJ-1u9m3FiK80w1-23">
          <mxGeometry x="256" width="40" height="40" as="geometry" />
        </mxCell>
        <mxCell id="lFueTjJ-1u9m3FiK80w1-6" value="&lt;font style=&quot;font-size: 20px;&quot; face=&quot;Times New Roman&quot;&gt;4&lt;/font&gt;" style="ellipse;whiteSpace=wrap;html=1;aspect=fixed;strokeWidth=2;" vertex="1" parent="lFueTjJ-1u9m3FiK80w1-23">
          <mxGeometry x="336" width="40" height="40" as="geometry" />
        </mxCell>
        <mxCell id="lFueTjJ-1u9m3FiK80w1-7" value="&lt;font style=&quot;font-size: 20px;&quot; face=&quot;Times New Roman&quot;&gt;5&lt;/font&gt;" style="ellipse;whiteSpace=wrap;html=1;aspect=fixed;strokeWidth=2;" vertex="1" parent="lFueTjJ-1u9m3FiK80w1-23">
          <mxGeometry x="416" width="40" height="40" as="geometry" />
        </mxCell>
        <mxCell id="lFueTjJ-1u9m3FiK80w1-8" value="&lt;font style=&quot;font-size: 20px;&quot; face=&quot;Times New Roman&quot;&gt;6&lt;/font&gt;" style="ellipse;whiteSpace=wrap;html=1;aspect=fixed;strokeWidth=2;" vertex="1" parent="lFueTjJ-1u9m3FiK80w1-23">
          <mxGeometry x="496" width="40" height="40" as="geometry" />
        </mxCell>
        <mxCell id="lFueTjJ-1u9m3FiK80w1-9" value="&lt;font style=&quot;font-size: 20px;&quot; face=&quot;Times New Roman&quot;&gt;Step 1&lt;/font&gt;" style="text;html=1;align=center;verticalAlign=middle;resizable=0;points=[];autosize=1;strokeColor=none;fillColor=none;strokeWidth=2;" vertex="1" parent="lFueTjJ-1u9m3FiK80w1-23">
          <mxGeometry width="70" height="40" as="geometry" />
        </mxCell>
        <mxCell id="lFueTjJ-1u9m3FiK80w1-70" value="" style="group" vertex="1" connectable="0" parent="lFueTjJ-1u9m3FiK80w1-99">
          <mxGeometry y="70" width="456" height="100" as="geometry" />
        </mxCell>
        <mxCell id="lFueTjJ-1u9m3FiK80w1-26" value="&lt;font style=&quot;font-size: 20px;&quot; face=&quot;Times New Roman&quot;&gt;1&lt;/font&gt;" style="ellipse;whiteSpace=wrap;html=1;aspect=fixed;strokeWidth=2;" vertex="1" parent="lFueTjJ-1u9m3FiK80w1-70">
          <mxGeometry x="96" width="40" height="40" as="geometry" />
        </mxCell>
        <mxCell id="lFueTjJ-1u9m3FiK80w1-27" value="&lt;font style=&quot;font-size: 20px;&quot; face=&quot;Times New Roman&quot;&gt;3&lt;/font&gt;" style="ellipse;whiteSpace=wrap;html=1;aspect=fixed;strokeWidth=2;" vertex="1" parent="lFueTjJ-1u9m3FiK80w1-70">
          <mxGeometry x="96" y="60" width="40" height="40" as="geometry" />
        </mxCell>
        <mxCell id="lFueTjJ-1u9m3FiK80w1-28" value="" style="endArrow=none;html=1;rounded=0;strokeWidth=2;" edge="1" parent="lFueTjJ-1u9m3FiK80w1-70" source="lFueTjJ-1u9m3FiK80w1-27" target="lFueTjJ-1u9m3FiK80w1-26">
          <mxGeometry width="50" height="50" relative="1" as="geometry">
            <mxPoint x="296" y="120" as="sourcePoint" />
            <mxPoint x="346" y="70" as="targetPoint" />
          </mxGeometry>
        </mxCell>
        <mxCell id="lFueTjJ-1u9m3FiK80w1-29" value="&lt;font style=&quot;font-size: 20px;&quot; face=&quot;Times New Roman&quot;&gt;2&lt;/font&gt;" style="ellipse;whiteSpace=wrap;html=1;aspect=fixed;strokeWidth=2;" vertex="1" parent="lFueTjJ-1u9m3FiK80w1-70">
          <mxGeometry x="176" y="30" width="40" height="40" as="geometry" />
        </mxCell>
        <mxCell id="lFueTjJ-1u9m3FiK80w1-30" value="&lt;font style=&quot;font-size: 20px;&quot; face=&quot;Times New Roman&quot;&gt;4&lt;/font&gt;" style="ellipse;whiteSpace=wrap;html=1;aspect=fixed;strokeWidth=2;" vertex="1" parent="lFueTjJ-1u9m3FiK80w1-70">
          <mxGeometry x="256" y="30" width="40" height="40" as="geometry" />
        </mxCell>
        <mxCell id="lFueTjJ-1u9m3FiK80w1-31" value="&lt;font style=&quot;font-size: 20px;&quot; face=&quot;Times New Roman&quot;&gt;5&lt;/font&gt;" style="ellipse;whiteSpace=wrap;html=1;aspect=fixed;strokeWidth=2;" vertex="1" parent="lFueTjJ-1u9m3FiK80w1-70">
          <mxGeometry x="336" y="30" width="40" height="40" as="geometry" />
        </mxCell>
        <mxCell id="lFueTjJ-1u9m3FiK80w1-32" value="&lt;font style=&quot;font-size: 20px;&quot; face=&quot;Times New Roman&quot;&gt;6&lt;/font&gt;" style="ellipse;whiteSpace=wrap;html=1;aspect=fixed;strokeWidth=2;" vertex="1" parent="lFueTjJ-1u9m3FiK80w1-70">
          <mxGeometry x="416" y="30" width="40" height="40" as="geometry" />
        </mxCell>
        <mxCell id="lFueTjJ-1u9m3FiK80w1-33" value="&lt;font style=&quot;font-size: 20px;&quot; face=&quot;Times New Roman&quot;&gt;Step 2&lt;/font&gt;" style="text;html=1;align=center;verticalAlign=middle;resizable=0;points=[];autosize=1;strokeColor=none;fillColor=none;strokeWidth=2;" vertex="1" parent="lFueTjJ-1u9m3FiK80w1-70">
          <mxGeometry y="30" width="70" height="40" as="geometry" />
        </mxCell>
        <mxCell id="lFueTjJ-1u9m3FiK80w1-34" value="&lt;font style=&quot;font-size: 20px;&quot; face=&quot;Times New Roman&quot;&gt;1&lt;/font&gt;" style="text;html=1;align=center;verticalAlign=middle;resizable=0;points=[];autosize=1;strokeColor=none;fillColor=none;strokeWidth=2;" vertex="1" parent="lFueTjJ-1u9m3FiK80w1-70">
          <mxGeometry x="110" y="30" width="30" height="40" as="geometry" />
        </mxCell>
        <mxCell id="lFueTjJ-1u9m3FiK80w1-76" value="" style="group" vertex="1" connectable="0" parent="lFueTjJ-1u9m3FiK80w1-99">
          <mxGeometry y="200" width="416" height="100" as="geometry" />
        </mxCell>
        <mxCell id="lFueTjJ-1u9m3FiK80w1-12" value="&lt;font style=&quot;font-size: 20px;&quot; face=&quot;Times New Roman&quot;&gt;1&lt;/font&gt;" style="ellipse;whiteSpace=wrap;html=1;aspect=fixed;strokeWidth=2;" vertex="1" parent="lFueTjJ-1u9m3FiK80w1-76">
          <mxGeometry x="96" width="40" height="40" as="geometry" />
        </mxCell>
        <mxCell id="lFueTjJ-1u9m3FiK80w1-14" value="&lt;font style=&quot;font-size: 20px;&quot; face=&quot;Times New Roman&quot;&gt;3&lt;/font&gt;" style="ellipse;whiteSpace=wrap;html=1;aspect=fixed;strokeWidth=2;" vertex="1" parent="lFueTjJ-1u9m3FiK80w1-76">
          <mxGeometry x="96" y="60" width="40" height="40" as="geometry" />
        </mxCell>
        <mxCell id="lFueTjJ-1u9m3FiK80w1-20" value="" style="endArrow=none;html=1;rounded=0;strokeWidth=2;" edge="1" parent="lFueTjJ-1u9m3FiK80w1-76" source="lFueTjJ-1u9m3FiK80w1-14" target="lFueTjJ-1u9m3FiK80w1-12">
          <mxGeometry width="50" height="50" relative="1" as="geometry">
            <mxPoint x="296" y="120" as="sourcePoint" />
            <mxPoint x="346" y="70" as="targetPoint" />
          </mxGeometry>
        </mxCell>
        <mxCell id="lFueTjJ-1u9m3FiK80w1-13" value="&lt;font style=&quot;font-size: 20px;&quot; face=&quot;Times New Roman&quot;&gt;2&lt;/font&gt;" style="ellipse;whiteSpace=wrap;html=1;aspect=fixed;strokeWidth=2;" vertex="1" parent="lFueTjJ-1u9m3FiK80w1-76">
          <mxGeometry x="176" y="30" width="40" height="40" as="geometry" />
        </mxCell>
        <mxCell id="lFueTjJ-1u9m3FiK80w1-15" value="&lt;font style=&quot;font-size: 20px;&quot; face=&quot;Times New Roman&quot;&gt;4&lt;/font&gt;" style="ellipse;whiteSpace=wrap;html=1;aspect=fixed;strokeWidth=2;" vertex="1" parent="lFueTjJ-1u9m3FiK80w1-76">
          <mxGeometry x="296" width="40" height="40" as="geometry" />
        </mxCell>
        <mxCell id="lFueTjJ-1u9m3FiK80w1-16" value="&lt;font style=&quot;font-size: 20px;&quot; face=&quot;Times New Roman&quot;&gt;5&lt;/font&gt;" style="ellipse;whiteSpace=wrap;html=1;aspect=fixed;strokeWidth=2;" vertex="1" parent="lFueTjJ-1u9m3FiK80w1-76">
          <mxGeometry x="376" y="30" width="40" height="40" as="geometry" />
        </mxCell>
        <mxCell id="lFueTjJ-1u9m3FiK80w1-17" value="&lt;font style=&quot;font-size: 20px;&quot; face=&quot;Times New Roman&quot;&gt;6&lt;/font&gt;" style="ellipse;whiteSpace=wrap;html=1;aspect=fixed;strokeWidth=2;" vertex="1" parent="lFueTjJ-1u9m3FiK80w1-76">
          <mxGeometry x="256" y="60" width="40" height="40" as="geometry" />
        </mxCell>
        <mxCell id="lFueTjJ-1u9m3FiK80w1-18" value="&lt;font style=&quot;font-size: 20px;&quot; face=&quot;Times New Roman&quot;&gt;Step 3&lt;/font&gt;" style="text;html=1;align=center;verticalAlign=middle;resizable=0;points=[];autosize=1;strokeColor=none;fillColor=none;strokeWidth=2;" vertex="1" parent="lFueTjJ-1u9m3FiK80w1-76">
          <mxGeometry y="30" width="70" height="40" as="geometry" />
        </mxCell>
        <mxCell id="lFueTjJ-1u9m3FiK80w1-21" value="&lt;font style=&quot;font-size: 20px;&quot; face=&quot;Times New Roman&quot;&gt;1&lt;/font&gt;" style="text;html=1;align=center;verticalAlign=middle;resizable=0;points=[];autosize=1;strokeColor=none;fillColor=none;strokeWidth=2;" vertex="1" parent="lFueTjJ-1u9m3FiK80w1-76">
          <mxGeometry x="110" y="30" width="30" height="40" as="geometry" />
        </mxCell>
        <mxCell id="lFueTjJ-1u9m3FiK80w1-35" value="" style="endArrow=none;html=1;rounded=0;fontFamily=Helvetica;fontSize=12;fontColor=default;strokeWidth=2;" edge="1" parent="lFueTjJ-1u9m3FiK80w1-76" source="lFueTjJ-1u9m3FiK80w1-17" target="lFueTjJ-1u9m3FiK80w1-15">
          <mxGeometry width="50" height="50" relative="1" as="geometry">
            <mxPoint x="286" y="40" as="sourcePoint" />
            <mxPoint x="336" y="-10" as="targetPoint" />
          </mxGeometry>
        </mxCell>
        <mxCell id="lFueTjJ-1u9m3FiK80w1-36" value="&lt;font style=&quot;font-size: 20px;&quot; face=&quot;Times New Roman&quot;&gt;2&lt;/font&gt;" style="text;html=1;align=center;verticalAlign=middle;resizable=0;points=[];autosize=1;strokeColor=none;fillColor=none;strokeWidth=2;" vertex="1" parent="lFueTjJ-1u9m3FiK80w1-76">
          <mxGeometry x="272" y="25" width="30" height="40" as="geometry" />
        </mxCell>
        <mxCell id="lFueTjJ-1u9m3FiK80w1-78" value="" style="group" vertex="1" connectable="0" parent="lFueTjJ-1u9m3FiK80w1-99">
          <mxGeometry y="330" width="376" height="100" as="geometry" />
        </mxCell>
        <mxCell id="lFueTjJ-1u9m3FiK80w1-39" value="&lt;font style=&quot;font-size: 20px;&quot; face=&quot;Times New Roman&quot;&gt;1&lt;/font&gt;" style="ellipse;whiteSpace=wrap;html=1;aspect=fixed;strokeWidth=2;" vertex="1" parent="lFueTjJ-1u9m3FiK80w1-78">
          <mxGeometry x="96" width="40" height="40" as="geometry" />
        </mxCell>
        <mxCell id="lFueTjJ-1u9m3FiK80w1-40" value="&lt;font style=&quot;font-size: 20px;&quot; face=&quot;Times New Roman&quot;&gt;3&lt;/font&gt;" style="ellipse;whiteSpace=wrap;html=1;aspect=fixed;strokeWidth=2;" vertex="1" parent="lFueTjJ-1u9m3FiK80w1-78">
          <mxGeometry x="96" y="60" width="40" height="40" as="geometry" />
        </mxCell>
        <mxCell id="lFueTjJ-1u9m3FiK80w1-41" value="" style="endArrow=none;html=1;rounded=0;strokeWidth=2;" edge="1" parent="lFueTjJ-1u9m3FiK80w1-78" source="lFueTjJ-1u9m3FiK80w1-40" target="lFueTjJ-1u9m3FiK80w1-39">
          <mxGeometry width="50" height="50" relative="1" as="geometry">
            <mxPoint x="296" y="120" as="sourcePoint" />
            <mxPoint x="346" y="70" as="targetPoint" />
          </mxGeometry>
        </mxCell>
        <mxCell id="lFueTjJ-1u9m3FiK80w1-42" value="&lt;font style=&quot;font-size: 20px;&quot; face=&quot;Times New Roman&quot;&gt;2&lt;/font&gt;" style="ellipse;whiteSpace=wrap;html=1;aspect=fixed;strokeWidth=2;" vertex="1" parent="lFueTjJ-1u9m3FiK80w1-78">
          <mxGeometry x="176" width="40" height="40" as="geometry" />
        </mxCell>
        <mxCell id="lFueTjJ-1u9m3FiK80w1-43" value="&lt;font style=&quot;font-size: 20px;&quot; face=&quot;Times New Roman&quot;&gt;4&lt;/font&gt;" style="ellipse;whiteSpace=wrap;html=1;aspect=fixed;strokeWidth=2;" vertex="1" parent="lFueTjJ-1u9m3FiK80w1-78">
          <mxGeometry x="336" width="40" height="40" as="geometry" />
        </mxCell>
        <mxCell id="lFueTjJ-1u9m3FiK80w1-44" value="&lt;font style=&quot;font-size: 20px;&quot; face=&quot;Times New Roman&quot;&gt;5&lt;/font&gt;" style="ellipse;whiteSpace=wrap;html=1;aspect=fixed;strokeWidth=2;" vertex="1" parent="lFueTjJ-1u9m3FiK80w1-78">
          <mxGeometry x="216" y="60" width="40" height="40" as="geometry" />
        </mxCell>
        <mxCell id="lFueTjJ-1u9m3FiK80w1-45" value="&lt;font style=&quot;font-size: 20px;&quot; face=&quot;Times New Roman&quot;&gt;6&lt;/font&gt;" style="ellipse;whiteSpace=wrap;html=1;aspect=fixed;strokeWidth=2;" vertex="1" parent="lFueTjJ-1u9m3FiK80w1-78">
          <mxGeometry x="296" y="60" width="40" height="40" as="geometry" />
        </mxCell>
        <mxCell id="lFueTjJ-1u9m3FiK80w1-46" value="&lt;font style=&quot;font-size: 20px;&quot; face=&quot;Times New Roman&quot;&gt;Step 4&lt;/font&gt;" style="text;html=1;align=center;verticalAlign=middle;resizable=0;points=[];autosize=1;strokeColor=none;fillColor=none;strokeWidth=2;" vertex="1" parent="lFueTjJ-1u9m3FiK80w1-78">
          <mxGeometry y="30" width="70" height="40" as="geometry" />
        </mxCell>
        <mxCell id="lFueTjJ-1u9m3FiK80w1-47" value="&lt;font style=&quot;font-size: 20px;&quot; face=&quot;Times New Roman&quot;&gt;1&lt;/font&gt;" style="text;html=1;align=center;verticalAlign=middle;resizable=0;points=[];autosize=1;strokeColor=none;fillColor=none;strokeWidth=2;" vertex="1" parent="lFueTjJ-1u9m3FiK80w1-78">
          <mxGeometry x="110" y="30" width="30" height="40" as="geometry" />
        </mxCell>
        <mxCell id="lFueTjJ-1u9m3FiK80w1-48" value="" style="endArrow=none;html=1;rounded=0;fontFamily=Helvetica;fontSize=12;fontColor=default;strokeWidth=2;" edge="1" parent="lFueTjJ-1u9m3FiK80w1-78" source="lFueTjJ-1u9m3FiK80w1-45" target="lFueTjJ-1u9m3FiK80w1-43">
          <mxGeometry width="50" height="50" relative="1" as="geometry">
            <mxPoint x="326" y="40" as="sourcePoint" />
            <mxPoint x="376" y="-10" as="targetPoint" />
          </mxGeometry>
        </mxCell>
        <mxCell id="lFueTjJ-1u9m3FiK80w1-49" value="&lt;font style=&quot;font-size: 20px;&quot; face=&quot;Times New Roman&quot;&gt;2&lt;/font&gt;" style="text;html=1;align=center;verticalAlign=middle;resizable=0;points=[];autosize=1;strokeColor=none;fillColor=none;strokeWidth=2;" vertex="1" parent="lFueTjJ-1u9m3FiK80w1-78">
          <mxGeometry x="311" y="26" width="30" height="40" as="geometry" />
        </mxCell>
        <mxCell id="lFueTjJ-1u9m3FiK80w1-50" value="" style="endArrow=none;html=1;rounded=0;fontFamily=Helvetica;fontSize=12;fontColor=default;strokeWidth=2;" edge="1" parent="lFueTjJ-1u9m3FiK80w1-78" source="lFueTjJ-1u9m3FiK80w1-42" target="lFueTjJ-1u9m3FiK80w1-44">
          <mxGeometry width="50" height="50" relative="1" as="geometry">
            <mxPoint x="286" as="sourcePoint" />
            <mxPoint x="336" y="-50" as="targetPoint" />
          </mxGeometry>
        </mxCell>
        <mxCell id="lFueTjJ-1u9m3FiK80w1-51" value="&lt;font style=&quot;font-size: 20px;&quot; face=&quot;Times New Roman&quot;&gt;3&lt;/font&gt;" style="text;html=1;align=center;verticalAlign=middle;resizable=0;points=[];autosize=1;strokeColor=none;fillColor=none;strokeWidth=2;" vertex="1" parent="lFueTjJ-1u9m3FiK80w1-78">
          <mxGeometry x="190" y="33" width="30" height="40" as="geometry" />
        </mxCell>
        <mxCell id="lFueTjJ-1u9m3FiK80w1-79" value="" style="group" vertex="1" connectable="0" parent="lFueTjJ-1u9m3FiK80w1-99">
          <mxGeometry y="460" width="336" height="160" as="geometry" />
        </mxCell>
        <mxCell id="lFueTjJ-1u9m3FiK80w1-54" value="&lt;font style=&quot;font-size: 20px;&quot; face=&quot;Times New Roman&quot;&gt;1&lt;/font&gt;" style="ellipse;whiteSpace=wrap;html=1;aspect=fixed;strokeWidth=2;" vertex="1" parent="lFueTjJ-1u9m3FiK80w1-79">
          <mxGeometry x="96" width="40" height="40" as="geometry" />
        </mxCell>
        <mxCell id="lFueTjJ-1u9m3FiK80w1-55" value="&lt;font style=&quot;font-size: 20px;&quot; face=&quot;Times New Roman&quot;&gt;3&lt;/font&gt;" style="ellipse;whiteSpace=wrap;html=1;aspect=fixed;strokeWidth=2;" vertex="1" parent="lFueTjJ-1u9m3FiK80w1-79">
          <mxGeometry x="96" y="60" width="40" height="40" as="geometry" />
        </mxCell>
        <mxCell id="lFueTjJ-1u9m3FiK80w1-56" value="" style="endArrow=none;html=1;rounded=0;strokeWidth=2;" edge="1" parent="lFueTjJ-1u9m3FiK80w1-79" source="lFueTjJ-1u9m3FiK80w1-55" target="lFueTjJ-1u9m3FiK80w1-54">
          <mxGeometry width="50" height="50" relative="1" as="geometry">
            <mxPoint x="296" y="110" as="sourcePoint" />
            <mxPoint x="346" y="60" as="targetPoint" />
          </mxGeometry>
        </mxCell>
        <mxCell id="lFueTjJ-1u9m3FiK80w1-58" value="&lt;font style=&quot;font-size: 20px;&quot; face=&quot;Times New Roman&quot;&gt;4&lt;/font&gt;" style="ellipse;whiteSpace=wrap;html=1;aspect=fixed;strokeWidth=2;" vertex="1" parent="lFueTjJ-1u9m3FiK80w1-79">
          <mxGeometry x="176" y="60" width="40" height="40" as="geometry" />
        </mxCell>
        <mxCell id="lFueTjJ-1u9m3FiK80w1-60" value="&lt;font style=&quot;font-size: 20px;&quot; face=&quot;Times New Roman&quot;&gt;6&lt;/font&gt;" style="ellipse;whiteSpace=wrap;html=1;aspect=fixed;strokeWidth=2;" vertex="1" parent="lFueTjJ-1u9m3FiK80w1-79">
          <mxGeometry x="136" y="120" width="40" height="40" as="geometry" />
        </mxCell>
        <mxCell id="lFueTjJ-1u9m3FiK80w1-61" value="&lt;font style=&quot;font-size: 20px;&quot; face=&quot;Times New Roman&quot;&gt;Step 5&lt;/font&gt;" style="text;html=1;align=center;verticalAlign=middle;resizable=0;points=[];autosize=1;strokeColor=none;fillColor=none;strokeWidth=2;" vertex="1" parent="lFueTjJ-1u9m3FiK80w1-79">
          <mxGeometry y="60" width="70" height="40" as="geometry" />
        </mxCell>
        <mxCell id="lFueTjJ-1u9m3FiK80w1-62" value="&lt;font style=&quot;font-size: 20px;&quot; face=&quot;Times New Roman&quot;&gt;1&lt;/font&gt;" style="text;html=1;align=center;verticalAlign=middle;resizable=0;points=[];autosize=1;strokeColor=none;fillColor=none;strokeWidth=2;" vertex="1" parent="lFueTjJ-1u9m3FiK80w1-79">
          <mxGeometry x="110" y="30" width="30" height="40" as="geometry" />
        </mxCell>
        <mxCell id="lFueTjJ-1u9m3FiK80w1-63" value="" style="endArrow=none;html=1;rounded=0;fontFamily=Helvetica;fontSize=12;fontColor=default;strokeWidth=2;" edge="1" parent="lFueTjJ-1u9m3FiK80w1-79" source="lFueTjJ-1u9m3FiK80w1-60" target="lFueTjJ-1u9m3FiK80w1-58">
          <mxGeometry width="50" height="50" relative="1" as="geometry">
            <mxPoint x="166" y="110" as="sourcePoint" />
            <mxPoint x="216" y="60" as="targetPoint" />
          </mxGeometry>
        </mxCell>
        <mxCell id="lFueTjJ-1u9m3FiK80w1-64" value="&lt;font style=&quot;font-size: 20px;&quot; face=&quot;Times New Roman&quot;&gt;2&lt;/font&gt;" style="text;html=1;align=center;verticalAlign=middle;resizable=0;points=[];autosize=1;strokeColor=none;fillColor=none;strokeWidth=2;" vertex="1" parent="lFueTjJ-1u9m3FiK80w1-79">
          <mxGeometry x="169" y="95" width="30" height="40" as="geometry" />
        </mxCell>
        <mxCell id="lFueTjJ-1u9m3FiK80w1-67" value="" style="endArrow=none;html=1;rounded=0;fontFamily=Helvetica;fontSize=12;fontColor=default;strokeWidth=2;" edge="1" parent="lFueTjJ-1u9m3FiK80w1-79" source="lFueTjJ-1u9m3FiK80w1-55" target="lFueTjJ-1u9m3FiK80w1-60">
          <mxGeometry width="50" height="50" relative="1" as="geometry">
            <mxPoint x="286" y="70" as="sourcePoint" />
            <mxPoint x="336" y="20" as="targetPoint" />
          </mxGeometry>
        </mxCell>
        <mxCell id="lFueTjJ-1u9m3FiK80w1-68" value="&lt;font style=&quot;font-size: 20px;&quot; face=&quot;Times New Roman&quot;&gt;4&lt;/font&gt;" style="text;html=1;align=center;verticalAlign=middle;resizable=0;points=[];autosize=1;strokeColor=none;fillColor=none;strokeWidth=2;" vertex="1" parent="lFueTjJ-1u9m3FiK80w1-79">
          <mxGeometry x="112" y="96" width="30" height="40" as="geometry" />
        </mxCell>
        <mxCell id="lFueTjJ-1u9m3FiK80w1-72" value="&lt;font style=&quot;font-size: 20px;&quot; face=&quot;Times New Roman&quot;&gt;2&lt;/font&gt;" style="ellipse;whiteSpace=wrap;html=1;aspect=fixed;strokeWidth=2;" vertex="1" parent="lFueTjJ-1u9m3FiK80w1-79">
          <mxGeometry x="256" y="20" width="40" height="40" as="geometry" />
        </mxCell>
        <mxCell id="lFueTjJ-1u9m3FiK80w1-73" value="&lt;font style=&quot;font-size: 20px;&quot; face=&quot;Times New Roman&quot;&gt;5&lt;/font&gt;" style="ellipse;whiteSpace=wrap;html=1;aspect=fixed;strokeWidth=2;" vertex="1" parent="lFueTjJ-1u9m3FiK80w1-79">
          <mxGeometry x="296" y="80" width="40" height="40" as="geometry" />
        </mxCell>
        <mxCell id="lFueTjJ-1u9m3FiK80w1-74" value="" style="endArrow=none;html=1;rounded=0;fontFamily=Helvetica;fontSize=12;fontColor=default;strokeWidth=2;" edge="1" parent="lFueTjJ-1u9m3FiK80w1-79" source="lFueTjJ-1u9m3FiK80w1-72" target="lFueTjJ-1u9m3FiK80w1-73">
          <mxGeometry width="50" height="50" relative="1" as="geometry">
            <mxPoint x="366" y="20" as="sourcePoint" />
            <mxPoint x="416" y="-30" as="targetPoint" />
          </mxGeometry>
        </mxCell>
        <mxCell id="lFueTjJ-1u9m3FiK80w1-75" value="&lt;font style=&quot;font-size: 20px;&quot; face=&quot;Times New Roman&quot;&gt;3&lt;/font&gt;" style="text;html=1;align=center;verticalAlign=middle;resizable=0;points=[];autosize=1;strokeColor=none;fillColor=none;strokeWidth=2;" vertex="1" parent="lFueTjJ-1u9m3FiK80w1-79">
          <mxGeometry x="270" y="55" width="30" height="40" as="geometry" />
        </mxCell>
        <mxCell id="lFueTjJ-1u9m3FiK80w1-98" value="" style="group" vertex="1" connectable="0" parent="lFueTjJ-1u9m3FiK80w1-99">
          <mxGeometry y="650" width="296" height="160" as="geometry" />
        </mxCell>
        <mxCell id="lFueTjJ-1u9m3FiK80w1-81" value="&lt;font style=&quot;font-size: 20px;&quot; face=&quot;Times New Roman&quot;&gt;1&lt;/font&gt;" style="ellipse;whiteSpace=wrap;html=1;aspect=fixed;strokeWidth=2;" vertex="1" parent="lFueTjJ-1u9m3FiK80w1-98">
          <mxGeometry x="176" width="40" height="40" as="geometry" />
        </mxCell>
        <mxCell id="lFueTjJ-1u9m3FiK80w1-82" value="&lt;font style=&quot;font-size: 20px;&quot; face=&quot;Times New Roman&quot;&gt;3&lt;/font&gt;" style="ellipse;whiteSpace=wrap;html=1;aspect=fixed;strokeWidth=2;" vertex="1" parent="lFueTjJ-1u9m3FiK80w1-98">
          <mxGeometry x="176" y="60" width="40" height="40" as="geometry" />
        </mxCell>
        <mxCell id="lFueTjJ-1u9m3FiK80w1-83" value="" style="endArrow=none;html=1;rounded=0;strokeWidth=2;" edge="1" parent="lFueTjJ-1u9m3FiK80w1-98" source="lFueTjJ-1u9m3FiK80w1-82" target="lFueTjJ-1u9m3FiK80w1-81">
          <mxGeometry width="50" height="50" relative="1" as="geometry">
            <mxPoint x="376" y="110" as="sourcePoint" />
            <mxPoint x="426" y="60" as="targetPoint" />
          </mxGeometry>
        </mxCell>
        <mxCell id="lFueTjJ-1u9m3FiK80w1-84" value="&lt;font style=&quot;font-size: 20px;&quot; face=&quot;Times New Roman&quot;&gt;4&lt;/font&gt;" style="ellipse;whiteSpace=wrap;html=1;aspect=fixed;strokeWidth=2;" vertex="1" parent="lFueTjJ-1u9m3FiK80w1-98">
          <mxGeometry x="256" y="60" width="40" height="40" as="geometry" />
        </mxCell>
        <mxCell id="lFueTjJ-1u9m3FiK80w1-85" value="&lt;font style=&quot;font-size: 20px;&quot; face=&quot;Times New Roman&quot;&gt;6&lt;/font&gt;" style="ellipse;whiteSpace=wrap;html=1;aspect=fixed;strokeWidth=2;" vertex="1" parent="lFueTjJ-1u9m3FiK80w1-98">
          <mxGeometry x="216" y="120" width="40" height="40" as="geometry" />
        </mxCell>
        <mxCell id="lFueTjJ-1u9m3FiK80w1-86" value="&lt;font style=&quot;font-size: 20px;&quot; face=&quot;Times New Roman&quot;&gt;Step 6&lt;/font&gt;" style="text;html=1;align=center;verticalAlign=middle;resizable=0;points=[];autosize=1;strokeColor=none;fillColor=none;strokeWidth=2;" vertex="1" parent="lFueTjJ-1u9m3FiK80w1-98">
          <mxGeometry y="60" width="70" height="40" as="geometry" />
        </mxCell>
        <mxCell id="lFueTjJ-1u9m3FiK80w1-87" value="&lt;font style=&quot;font-size: 20px;&quot; face=&quot;Times New Roman&quot;&gt;1&lt;/font&gt;" style="text;html=1;align=center;verticalAlign=middle;resizable=0;points=[];autosize=1;strokeColor=none;fillColor=none;strokeWidth=2;" vertex="1" parent="lFueTjJ-1u9m3FiK80w1-98">
          <mxGeometry x="190" y="30" width="30" height="40" as="geometry" />
        </mxCell>
        <mxCell id="lFueTjJ-1u9m3FiK80w1-88" value="" style="endArrow=none;html=1;rounded=0;fontFamily=Helvetica;fontSize=12;fontColor=default;strokeWidth=2;" edge="1" parent="lFueTjJ-1u9m3FiK80w1-98" source="lFueTjJ-1u9m3FiK80w1-85" target="lFueTjJ-1u9m3FiK80w1-84">
          <mxGeometry width="50" height="50" relative="1" as="geometry">
            <mxPoint x="246" y="110" as="sourcePoint" />
            <mxPoint x="296" y="60" as="targetPoint" />
          </mxGeometry>
        </mxCell>
        <mxCell id="lFueTjJ-1u9m3FiK80w1-89" value="&lt;font style=&quot;font-size: 20px;&quot; face=&quot;Times New Roman&quot;&gt;2&lt;/font&gt;" style="text;html=1;align=center;verticalAlign=middle;resizable=0;points=[];autosize=1;strokeColor=none;fillColor=none;strokeWidth=2;" vertex="1" parent="lFueTjJ-1u9m3FiK80w1-98">
          <mxGeometry x="249" y="95" width="30" height="40" as="geometry" />
        </mxCell>
        <mxCell id="lFueTjJ-1u9m3FiK80w1-90" value="" style="endArrow=none;html=1;rounded=0;fontFamily=Helvetica;fontSize=12;fontColor=default;strokeWidth=2;" edge="1" parent="lFueTjJ-1u9m3FiK80w1-98" source="lFueTjJ-1u9m3FiK80w1-82" target="lFueTjJ-1u9m3FiK80w1-85">
          <mxGeometry width="50" height="50" relative="1" as="geometry">
            <mxPoint x="366" y="70" as="sourcePoint" />
            <mxPoint x="416" y="20" as="targetPoint" />
          </mxGeometry>
        </mxCell>
        <mxCell id="lFueTjJ-1u9m3FiK80w1-91" value="&lt;font style=&quot;font-size: 20px;&quot; face=&quot;Times New Roman&quot;&gt;4&lt;/font&gt;" style="text;html=1;align=center;verticalAlign=middle;resizable=0;points=[];autosize=1;strokeColor=none;fillColor=none;strokeWidth=2;" vertex="1" parent="lFueTjJ-1u9m3FiK80w1-98">
          <mxGeometry x="192" y="96" width="30" height="40" as="geometry" />
        </mxCell>
        <mxCell id="lFueTjJ-1u9m3FiK80w1-92" value="&lt;font style=&quot;font-size: 20px;&quot; face=&quot;Times New Roman&quot;&gt;2&lt;/font&gt;" style="ellipse;whiteSpace=wrap;html=1;aspect=fixed;strokeWidth=2;" vertex="1" parent="lFueTjJ-1u9m3FiK80w1-98">
          <mxGeometry x="96" y="60" width="40" height="40" as="geometry" />
        </mxCell>
        <mxCell id="lFueTjJ-1u9m3FiK80w1-93" value="&lt;font style=&quot;font-size: 20px;&quot; face=&quot;Times New Roman&quot;&gt;5&lt;/font&gt;" style="ellipse;whiteSpace=wrap;html=1;aspect=fixed;strokeWidth=2;" vertex="1" parent="lFueTjJ-1u9m3FiK80w1-98">
          <mxGeometry x="136" y="120" width="40" height="40" as="geometry" />
        </mxCell>
        <mxCell id="lFueTjJ-1u9m3FiK80w1-94" value="" style="endArrow=none;html=1;rounded=0;fontFamily=Helvetica;fontSize=12;fontColor=default;strokeWidth=2;" edge="1" parent="lFueTjJ-1u9m3FiK80w1-98" source="lFueTjJ-1u9m3FiK80w1-92" target="lFueTjJ-1u9m3FiK80w1-93">
          <mxGeometry width="50" height="50" relative="1" as="geometry">
            <mxPoint x="206" y="60" as="sourcePoint" />
            <mxPoint x="256" y="10" as="targetPoint" />
          </mxGeometry>
        </mxCell>
        <mxCell id="lFueTjJ-1u9m3FiK80w1-95" value="&lt;font style=&quot;font-size: 20px;&quot; face=&quot;Times New Roman&quot;&gt;3&lt;/font&gt;" style="text;html=1;align=center;verticalAlign=middle;resizable=0;points=[];autosize=1;strokeColor=none;fillColor=none;strokeWidth=2;" vertex="1" parent="lFueTjJ-1u9m3FiK80w1-98">
          <mxGeometry x="112" y="96" width="30" height="40" as="geometry" />
        </mxCell>
        <mxCell id="lFueTjJ-1u9m3FiK80w1-96" value="" style="endArrow=none;html=1;rounded=0;fontFamily=Helvetica;fontSize=12;fontColor=default;strokeWidth=2;" edge="1" parent="lFueTjJ-1u9m3FiK80w1-98" source="lFueTjJ-1u9m3FiK80w1-92" target="lFueTjJ-1u9m3FiK80w1-82">
          <mxGeometry width="50" height="50" relative="1" as="geometry">
            <mxPoint x="86" y="60" as="sourcePoint" />
            <mxPoint x="136" y="10" as="targetPoint" />
          </mxGeometry>
        </mxCell>
        <mxCell id="lFueTjJ-1u9m3FiK80w1-97" value="&lt;font style=&quot;font-size: 20px;&quot; face=&quot;Times New Roman&quot;&gt;5&lt;/font&gt;" style="text;html=1;align=center;verticalAlign=middle;resizable=0;points=[];autosize=1;strokeColor=none;fillColor=none;strokeWidth=2;" vertex="1" parent="lFueTjJ-1u9m3FiK80w1-98">
          <mxGeometry x="141" y="48" width="30" height="40" as="geometry" />
        </mxCell>
      </root>
    </mxGraphModel>
  </diagram>
</mxfile>
